# xmcd
# Copyright (C) 1995-1998 Ti Kan
#
# Track frame offsets:
#       182
#       21390
#       38880
#       62677
#       77045
#       93002
#       116205
#       134725
#       150735
#
# Disc length: 2382 seconds
#
# Revision: 0
# Processed by: cddbd v1.5.2PL0 Copyright (c) Steve Scherf et al.
# Submitted via: CD-Import v1.0
#
DISCID=75094c09
DTITLE=Gianna Nannini - Profumo
DYEAR=1986
DGENRE=
TTITLE0=Bello E Impossibile
TTITLE1=Profumo
TTITLE2=Come Una Sciava
TTITLE3=Gelosia
TTITLE4=Seduzione
TTITLE5=Quale Amore
TTITLE6=Avventuriera
TTITLE7=Quante Mani
TTITLE8=Terra Straniera
EXTD=
EXTT0=
EXTT1=
EXTT2=
EXTT3=
EXTT4=
EXTT5=
EXTT6=
EXTT7=
EXTT8=
PLAYORDER=
